<svg xmlns="http://www.w3.org/2000/svg" xmlns:svg="http://www.w3.org/2000/svg" id="root" width="410.979" height="185.991" version="1.0" viewBox="0 0 612 792" xml:space="preserve"><metadata id="metadata2488"/>Converted with TEXTCAFE (tm) http://www.texterity.com<title id="title2418">Marvel Comics -- Page 1</title><defs id="defs2420"><style id="style2422" type="text/css"/><clipPath id="id2"><rect id="rect2425" width="612" height="792" x="0" y="0"/></clipPath><clipPath id="id3"><path id="path2428" d="M 0,792 L 612,792 L 612,0 L 0,0 L 0,792 z"/></clipPath></defs><g id="g2505" clip-path="url(#id3)" transform="matrix(4.2582706,0,0,-4.2582706,-977.60093,2103.7703)"><path id="path2507" d="M 508.58,305.914 L 97.601,305.914 L 97.601,491.905 L 508.58,491.905 L 508.58,305.914 z" style="fill:#f11e22;fill-rule:nonzero;stroke:none"/><path id="path2509" d="M 452.5,465.5 L 475.5,465.5 L 475.5,356.5 L 495,356.5 L 495,329 L 452.5,329 L 452.5,465.5 z" style="fill:#fff;fill-rule:nonzero;stroke:none"/><path id="path2515" d="M 294,400.5 C 310.5,401.5 309,422 309,422 C 306.5,442 294,441 294,441 L 294,400.5 z M 241,369 L 234,410.5 L 228,369 L 241,369 z M 114.5,329.5 L 114.5,465.5 L 145.5,465.5 L 156.5,408.5 L 169,465.5 L 199,465.5 L 199,343 L 218.5,465.5 L 249,465.5 L 268,343 L 268,465 L 308.5,465 C 308.5,465 322.5,462.5 329.5,443 L 326.5,465.5 L 351,465.5 L 362.5,395 L 374.5,465 L 443.5,465 L 443.5,439.5 L 423,439.5 L 423,411.5 L 442.5,411.5 L 442.5,383 L 423.5,383 L 423.5,357 L 443.5,357 L 443.5,329.5 L 399,329.5 L 399,460.5 L 376,329.5 L 348.5,329.5 L 334,416.5 C 334,416.5 331.5,392.5 318,381.5 L 335.5,329.5 L 311.5,329.5 L 294.5,375 L 294.5,329.5 L 246,329.5 L 243.5,342.5 L 225,342.5 L 221,329.5 L 175,329.5 L 175,379.5 L 163,329.5 L 150.5,329.5 L 139.5,379 L 139.5,330 L 114.5,329.5 z" style="fill:#fff;fill-rule:nonzero;stroke:none"/></g></svg>